{
    "asset" : {
        "generator" : "Khronos glTF Blender I/O v1.7.33",
        "version" : "2.0"
    },
    "scene" : 0,
    "scenes" : [
        {
            "name" : "Scene",
            "nodes" : [
                0,
                1
            ]
        }
    ],
    "nodes" : [
        {
            "mesh" : 0,
            "name" : "soft drive"
        },
        {
            "mesh" : 1,
            "name" : "Text",
            "translation" : [
                3.1947598457336426,
                1.0200189352035522,
                4.297019004821777
            ]
        }
    ],
    "materials" : [
        {
            "doubleSided" : true,
            "name" : "Material.003",
            "pbrMetallicRoughness" : {
                "roughnessFactor" : 0.5
            }
        }
    ],
    "meshes" : [
        {
            "name" : "Text.001",
            "primitives" : [
                {
                    "attributes" : {
                        "POSITION" : 0,
                        "NORMAL" : 1,
                        "TEXCOORD_0" : 2
                    },
                    "indices" : 3,
                    "material" : 0
                }
            ]
        },
        {
            "name" : "Text.002",
            "primitives" : [
                {
                    "attributes" : {
                        "POSITION" : 4,
                        "NORMAL" : 5,
                        "TEXCOORD_0" : 6
                    },
                    "indices" : 7
                }
            ]
        }
    ],
    "accessors" : [
        {
            "bufferView" : 0,
            "componentType" : 5126,
            "count" : 12017,
            "max" : [
                12.293600082397461,
                0.23999999463558197,
                0
            ],
            "min" : [
                0.04840000346302986,
                -0.23999999463558197,
                -1.6940001249313354
            ],
            "type" : "VEC3"
        },
        {
            "bufferView" : 1,
            "componentType" : 5126,
            "count" : 12017,
            "type" : "VEC3"
        },
        {
            "bufferView" : 2,
            "componentType" : 5126,
            "count" : 12017,
            "type" : "VEC2"
        },
        {
            "bufferView" : 3,
            "componentType" : 5123,
            "count" : 21804,
            "type" : "SCALAR"
        },
        {
            "bufferView" : 4,
            "componentType" : 5126,
            "count" : 7850,
            "max" : [
                15.607455253601074,
                0.3199999928474426,
                0.06662733852863312
            ],
            "min" : [
                0.05472960323095322,
                -0.3199999928474426,
                -1.737069845199585
            ],
            "type" : "VEC3"
        },
        {
            "bufferView" : 5,
            "componentType" : 5126,
            "count" : 7850,
            "type" : "VEC3"
        },
        {
            "bufferView" : 6,
            "componentType" : 5126,
            "count" : 7850,
            "type" : "VEC2"
        },
        {
            "bufferView" : 7,
            "componentType" : 5123,
            "count" : 14208,
            "type" : "SCALAR"
        }
    ],
    "bufferViews" : [
        {
            "buffer" : 0,
            "byteLength" : 144204,
            "byteOffset" : 0
        },
        {
            "buffer" : 0,
            "byteLength" : 144204,
            "byteOffset" : 144204
        },
        {
            "buffer" : 0,
            "byteLength" : 96136,
            "byteOffset" : 288408
        },
        {
            "buffer" : 0,
            "byteLength" : 43608,
            "byteOffset" : 384544
        },
        {
            "buffer" : 0,
            "byteLength" : 94200,
            "byteOffset" : 428152
        },
        {
            "buffer" : 0,
            "byteLength" : 94200,
            "byteOffset" : 522352
        },
        {
            "buffer" : 0,
            "byteLength" : 62800,
            "byteOffset" : 616552
        },
        {
            "buffer" : 0,
            "byteLength" : 28416,
            "byteOffset" : 679352
        }
    ],
    "buffers" : [
        {
            "byteLength" : 707768,
            "uri" : "data:application/octet-stream;base64,"
        }
    ]
}
