<svg width="1774" height="737" viewBox="0 0 1774 737" fill="none" xmlns="http://www.w3.org/2000/svg">
<path d="M82.1424 12.5C43.9421 12.5 12.5 42.8611 12.5 80.8923V378.327C12.5 416.358 43.9421 446.719 82.1424 446.719H312.498V656.108C312.498 694.139 343.94 724.5 382.14 724.5H1032.14H1691.13C1729.33 724.5 1760.77 694.139 1760.77 656.108V446.246C1760.77 408.215 1729.33 377.854 1691.13 377.854H1223.21V80.8923C1223.21 42.8611 1191.76 12.5 1153.56 12.5H82.1424Z" fill="white" stroke="#FFB6F8" stroke-width="25"/>
<path d="M881.249 65.4695C881.249 70.6087 876.624 75.234 871.485 75.234H807.245C800.564 75.234 795.425 80.8871 795.425 87.5681V204.881H863.262C868.402 204.881 873.027 209.506 873.027 214.645C873.027 219.785 868.402 224.41 863.262 224.41H807.245C800.564 224.41 795.425 230.063 795.425 236.744V371.434C795.425 381.198 788.23 402.449 775.896 402.449H680.821C667.973 402.449 660.264 382.74 660.264 369.892V76.2618C660.264 63.4139 667.973 55.7051 680.821 55.7051H871.485C876.624 55.7051 881.249 60.3303 881.249 65.4695Z" fill="#FFB6F8"/>
<path d="M911.43 55.7051H1176.1C1181.24 55.7051 1185.86 60.3303 1185.86 65.4695C1185.86 70.6087 1181.24 75.234 1176.1 75.234H1111.34V391.437C1111.34 404.285 1103.64 411.994 1090.79 411.994H996.741C983.893 411.994 976.184 404.285 976.184 391.437V75.234H911.43C906.291 75.234 901.666 70.6087 901.666 65.4695C901.666 60.3303 906.291 55.7051 911.43 55.7051Z" fill="#FFB6F8"/>
<path d="M348.03 179.459C348.03 191.279 338.78 200.53 326.96 200.53H212.87V89.3842C212.87 82.7032 207.216 77.564 200.535 77.564C193.855 77.564 188.715 82.7032 188.715 89.3842V223.656H326.96C338.78 223.656 348.03 232.907 348.03 244.727V382.736C348.03 395.583 340.321 403.292 327.473 403.292H74.1114C61.2635 403.292 53.5547 395.583 53.5547 382.736V287.382C53.5547 275.562 62.8052 266.311 74.6254 266.311H188.715V372.457C188.715 379.138 194.368 384.277 201.049 384.277C207.73 384.277 212.87 379.138 212.87 372.457V243.185H74.6254C62.8052 243.185 53.5547 233.935 53.5547 222.114V79.1058C53.5547 66.2578 61.2635 58.549 74.1114 58.549H327.473C340.321 58.549 348.03 66.2578 348.03 79.1058V179.459Z" fill="#FFB6F8"/>
<path fill-rule="evenodd" clip-rule="evenodd" d="M357.356 74.5502C357.356 65.998 364.334 61.393 377.289 61.393H622.935C635.89 61.393 642.866 65.998 642.866 74.5502V186.99C642.866 195.543 635.89 200.148 622.935 200.148H377.289C364.334 200.148 357.356 195.543 357.356 186.99V74.5502ZM499.863 186.978C506.341 186.978 511.82 183.689 511.82 179.412V81.1287C511.82 76.8527 506.341 73.5634 499.863 73.5634C493.386 73.5634 488.404 76.8527 488.404 81.1287V179.412C488.404 183.689 493.386 186.978 499.863 186.978Z" fill="#FFB6F8"/>
<path fill-rule="evenodd" clip-rule="evenodd" d="M373.897 430.671C360.536 430.671 353.341 437.866 353.341 451.228V657.063C353.341 670.425 360.536 677.62 373.897 677.62H621.259C634.621 677.62 641.816 670.425 641.816 657.063C641.816 643.701 641.816 244.568 641.816 244.568C641.816 231.72 634.107 224.011 621.259 224.011H533.212C519.85 224.011 512.656 231.206 512.656 244.568V418.337C512.656 425.018 507.516 430.671 500.835 430.671H373.897ZM488.501 461.506C488.501 454.825 494.154 449.686 500.835 449.686C507.516 449.686 512.656 454.825 512.656 461.506V646.784C512.656 653.465 507.516 658.604 500.835 658.604C494.154 658.604 488.501 653.465 488.501 646.784V461.506Z" fill="#FFB6F8"/>
<path d="M997.137 380.634C984.289 380.634 976.579 401.191 976.579 401.191V657.026C976.579 669.874 984.289 677.583 997.137 677.583H1091.18C1104.03 677.583 1111.74 669.874 1111.74 657.026V401.191C1111.74 388.343 1104.03 380.634 1091.18 380.634H997.137Z" fill="#FFB6F8"/>
<path d="M658.257 451.191C658.257 437.829 665.452 430.634 678.814 430.634H932.176C945.538 430.634 952.732 437.829 952.732 451.191V507.208C952.732 519.028 943.482 605.659 931.662 605.659H817.572V461.47C817.572 454.789 811.919 449.649 805.238 449.649C798.557 449.649 793.418 454.789 793.418 461.47V657.026C793.418 670.388 786.223 677.583 772.861 677.583H678.814C665.966 677.583 658.257 669.874 658.257 657.026V451.191Z" fill="#FFB6F8"/>
<path d="M1265.17 658.568C1271.86 658.568 1275.45 653.943 1275.45 646.748L1279.56 430.634H1381.83C1395.2 430.634 1402.91 438.857 1401.36 452.219L1383.89 658.054C1382.86 670.902 1375.15 677.583 1362.31 677.583H1168.04C1155.2 677.583 1147.49 670.902 1146.46 658.054L1128.99 452.219C1127.44 438.857 1135.15 430.634 1148.52 430.634H1250.79L1254.9 646.748C1254.9 653.943 1258.49 658.568 1265.17 658.568Z" fill="#FFB6F8"/>
<path fill-rule="evenodd" clip-rule="evenodd" d="M1557.27 645.72C1557.27 652.401 1562.41 658.054 1569.09 658.054H1707.33C1712.47 658.054 1717.1 662.679 1717.1 667.818C1717.1 672.958 1712.47 677.583 1707.33 677.583H1442.66C1429.81 677.583 1422.11 669.874 1422.11 657.026V451.191C1422.11 437.829 1429.3 430.634 1442.66 430.634H1696.02C1709.39 430.634 1716.58 437.829 1716.58 451.191C1716.58 451.191 1716.58 567.604 1716.58 580.966C1716.58 594.328 1709.39 601.523 1696.02 601.523H1569.09C1562.41 601.523 1557.27 607.176 1557.27 613.857V645.72ZM1569.09 449.649C1562.41 449.649 1557.27 454.789 1557.27 461.47V570.688C1557.27 577.369 1562.41 582.508 1569.09 582.508C1575.77 582.508 1581.42 577.369 1581.42 570.688V461.47C1581.42 454.789 1575.77 449.649 1569.09 449.649Z" fill="#FFB6F8"/>
<path d="M1044 434.001C1102.3 434.001 1115 425.622 1115 393.035C1115 361.38 1102.3 353.001 1044 353.001C985.702 353.001 973 361.38 973 393.035C973 425.622 985.702 434.001 1044 434.001Z" fill="white"/>
</svg>
