<svg width="3405" height="3016" viewBox="0 0 3405 3016" fill="none" xmlns="http://www.w3.org/2000/svg">
<path d="M629.142 775.5C590.942 775.5 559.5 805.861 559.5 843.892V1141.33C559.5 1179.36 590.942 1209.72 629.142 1209.72H859.498V1419.11C859.498 1457.14 890.94 1487.5 929.14 1487.5H1579.14H2238.13C2276.33 1487.5 2307.77 1457.14 2307.77 1419.11V1209.25C2307.77 1171.21 2276.33 1140.85 2238.13 1140.85H1770.21V843.892C1770.21 805.861 1738.76 775.5 1700.56 775.5H629.142Z" fill="white" stroke="#FFB6F8" stroke-width="25"/>
<path d="M1428.25 828.47C1428.25 833.609 1423.62 838.234 1418.49 838.234H1354.25C1347.56 838.234 1342.43 843.887 1342.43 850.568V967.881H1410.26C1415.4 967.881 1420.03 972.506 1420.03 977.645C1420.03 982.785 1415.4 987.41 1410.26 987.41H1354.25C1347.56 987.41 1342.43 993.063 1342.43 999.744V1134.43C1342.43 1144.2 1335.23 1165.45 1322.9 1165.45H1227.82C1214.97 1165.45 1207.26 1145.74 1207.26 1132.89V839.262C1207.26 826.414 1214.97 818.705 1227.82 818.705H1418.49C1423.62 818.705 1428.25 823.33 1428.25 828.47Z" fill="#FFB6F8"/>
<path d="M1458.43 818.705H1723.1C1728.24 818.705 1732.86 823.33 1732.86 828.47C1732.86 833.609 1728.24 838.234 1723.1 838.234H1658.34V1154.44C1658.34 1167.29 1650.64 1174.99 1637.79 1174.99H1543.74C1530.89 1174.99 1523.18 1167.29 1523.18 1154.44V838.234H1458.43C1453.29 838.234 1448.67 833.609 1448.67 828.47C1448.67 823.33 1453.29 818.705 1458.43 818.705Z" fill="#FFB6F8"/>
<path d="M895.03 942.459C895.03 954.279 885.78 963.53 873.96 963.53H759.87V852.384C759.87 845.703 754.216 840.564 747.535 840.564C740.855 840.564 735.715 845.703 735.715 852.384V986.656H873.96C885.78 986.656 895.03 995.907 895.03 1007.73V1145.74C895.03 1158.58 887.321 1166.29 874.473 1166.29H621.111C608.263 1166.29 600.555 1158.58 600.555 1145.74V1050.38C600.555 1038.56 609.805 1029.31 621.625 1029.31H735.715V1135.46C735.715 1142.14 741.368 1147.28 748.049 1147.28C754.73 1147.28 759.87 1142.14 759.87 1135.46V1006.19H621.625C609.805 1006.19 600.555 996.935 600.555 985.114V842.106C600.555 829.258 608.263 821.549 621.111 821.549H874.473C887.321 821.549 895.03 829.258 895.03 842.106V942.459Z" fill="#FFB6F8"/>
<path fill-rule="evenodd" clip-rule="evenodd" d="M904.356 837.55C904.356 828.998 911.334 824.393 924.289 824.393H1169.93C1182.89 824.393 1189.87 828.998 1189.87 837.55V949.99C1189.87 958.543 1182.89 963.148 1169.93 963.148H924.289C911.334 963.148 904.356 958.543 904.356 949.99V837.55ZM1046.86 949.978C1053.34 949.978 1058.82 946.689 1058.82 942.412V844.129C1058.82 839.853 1053.34 836.563 1046.86 836.563C1040.39 836.563 1035.4 839.853 1035.4 844.129V942.412C1035.4 946.689 1040.39 949.978 1046.86 949.978Z" fill="#FFB6F8"/>
<path fill-rule="evenodd" clip-rule="evenodd" d="M920.897 1193.67C907.536 1193.67 900.341 1200.87 900.341 1214.23V1420.06C900.341 1433.42 907.536 1440.62 920.897 1440.62H1168.26C1181.62 1440.62 1188.82 1433.42 1188.82 1420.06C1188.82 1406.7 1188.82 1007.57 1188.82 1007.57C1188.82 994.72 1181.11 987.011 1168.26 987.011H1080.21C1066.85 987.011 1059.66 994.206 1059.66 1007.57V1181.34C1059.66 1188.02 1054.52 1193.67 1047.84 1193.67H920.897ZM1035.5 1224.51C1035.5 1217.83 1041.15 1212.69 1047.84 1212.69C1054.52 1212.69 1059.66 1217.83 1059.66 1224.51V1409.78C1059.66 1416.47 1054.52 1421.6 1047.84 1421.6C1041.15 1421.6 1035.5 1416.47 1035.5 1409.78V1224.51Z" fill="#FFB6F8"/>
<path d="M1544.14 1143.63C1531.29 1143.63 1523.58 1164.19 1523.58 1164.19V1420.03C1523.58 1432.87 1531.29 1440.58 1544.14 1440.58H1638.18C1651.03 1440.58 1658.74 1432.87 1658.74 1420.03V1164.19C1658.74 1151.34 1651.03 1143.63 1638.18 1143.63H1544.14Z" fill="#FFB6F8"/>
<path d="M1205.26 1214.19C1205.26 1200.83 1212.45 1193.63 1225.81 1193.63H1479.18C1492.54 1193.63 1499.73 1200.83 1499.73 1214.19V1270.21C1499.73 1282.03 1490.48 1368.66 1478.66 1368.66H1364.57V1224.47C1364.57 1217.79 1358.92 1212.65 1352.24 1212.65C1345.56 1212.65 1340.42 1217.79 1340.42 1224.47V1420.03C1340.42 1433.39 1333.22 1440.58 1319.86 1440.58H1225.81C1212.97 1440.58 1205.26 1432.87 1205.26 1420.03V1214.19Z" fill="#FFB6F8"/>
<path d="M1812.17 1421.57C1818.86 1421.57 1822.45 1416.94 1822.45 1409.75L1826.56 1193.63H1928.83C1942.2 1193.63 1949.91 1201.86 1948.36 1215.22L1930.89 1421.05C1929.86 1433.9 1922.15 1440.58 1909.31 1440.58H1715.04C1702.2 1440.58 1694.49 1433.9 1693.46 1421.05L1675.99 1215.22C1674.44 1201.86 1682.15 1193.63 1695.52 1193.63H1797.79L1801.9 1409.75C1801.9 1416.94 1805.49 1421.57 1812.17 1421.57Z" fill="#FFB6F8"/>
<path fill-rule="evenodd" clip-rule="evenodd" d="M2104.27 1408.72C2104.27 1415.4 2109.41 1421.05 2116.09 1421.05H2254.33C2259.47 1421.05 2264.1 1425.68 2264.1 1430.82C2264.1 1435.96 2259.47 1440.58 2254.33 1440.58H1989.66C1976.81 1440.58 1969.11 1432.87 1969.11 1420.03V1214.19C1969.11 1200.83 1976.3 1193.63 1989.66 1193.63H2243.02C2256.39 1193.63 2263.58 1200.83 2263.58 1214.19C2263.58 1214.19 2263.58 1330.6 2263.58 1343.97C2263.58 1357.33 2256.39 1364.52 2243.02 1364.52H2116.09C2109.41 1364.52 2104.27 1370.18 2104.27 1376.86V1408.72ZM2116.09 1212.65C2109.41 1212.65 2104.27 1217.79 2104.27 1224.47V1333.69C2104.27 1340.37 2109.41 1345.51 2116.09 1345.51C2122.77 1345.51 2128.42 1340.37 2128.42 1333.69V1224.47C2128.42 1217.79 2122.77 1212.65 2116.09 1212.65Z" fill="#FFB6F8"/>
<path d="M1591 1197C1649.3 1197 1662 1188.62 1662 1156.04C1662 1124.38 1649.3 1116 1591 1116C1532.7 1116 1520 1124.38 1520 1156.04C1520 1188.62 1532.7 1197 1591 1197Z" fill="white"/>
<path d="M1163.14 1538.5C1124.94 1538.5 1093.5 1568.86 1093.5 1606.89V1894.33C1093.5 1932.36 1124.94 1962.72 1163.14 1962.72H1393.5V2172.11C1393.5 2210.14 1424.94 2240.5 1463.14 2240.5H2113.14H2772.13C2810.33 2240.5 2841.77 2210.14 2841.77 2172.11V1962.25C2841.77 1924.21 2810.33 1893.85 2772.13 1893.85H2304.21V1606.89C2304.21 1568.86 2272.76 1538.5 2234.56 1538.5H1163.14Z" fill="white" stroke="#FFB6F8" stroke-width="25"/>
<g filter="url(#filter0_i_438_543)">
<path d="M1962.25 1591.47C1962.25 1596.61 1957.62 1601.23 1952.49 1601.23H1888.25C1881.56 1601.23 1876.43 1606.89 1876.43 1613.57V1730.88H1944.26C1949.4 1730.88 1954.03 1735.51 1954.03 1740.65C1954.03 1745.78 1949.4 1750.41 1944.26 1750.41H1888.25C1881.56 1750.41 1876.43 1756.06 1876.43 1762.74V1897.43C1876.43 1907.2 1869.23 1928.45 1856.9 1928.45H1761.82C1748.97 1928.45 1741.26 1908.74 1741.26 1895.89V1602.26C1741.26 1589.41 1748.97 1581.71 1761.82 1581.71H1952.49C1957.62 1581.71 1962.25 1586.33 1962.25 1591.47Z" fill="#FFB6F8"/>
<path d="M1992.43 1581.71H2257.1C2262.24 1581.71 2266.86 1586.33 2266.86 1591.47C2266.86 1596.61 2262.24 1601.23 2257.1 1601.23H2192.34V1917.44C2192.34 1930.29 2184.64 1937.99 2171.79 1937.99H2077.74C2064.89 1937.99 2057.18 1930.29 2057.18 1917.44V1601.23H1992.43C1987.29 1601.23 1982.67 1596.61 1982.67 1591.47C1982.67 1586.33 1987.29 1581.71 1992.43 1581.71Z" fill="#FFB6F8"/>
<path d="M1429.03 1705.46C1429.03 1717.28 1419.78 1726.53 1407.96 1726.53H1293.87V1615.38C1293.87 1608.7 1288.22 1603.56 1281.54 1603.56C1274.85 1603.56 1269.72 1608.7 1269.72 1615.38V1749.66H1407.96C1419.78 1749.66 1429.03 1758.91 1429.03 1770.73V1908.74C1429.03 1921.58 1421.32 1929.29 1408.47 1929.29H1155.11C1142.26 1929.29 1134.55 1921.58 1134.55 1908.74V1813.38C1134.55 1801.56 1143.81 1792.31 1155.63 1792.31H1269.72V1898.46C1269.72 1905.14 1275.37 1910.28 1282.05 1910.28C1288.73 1910.28 1293.87 1905.14 1293.87 1898.46V1769.19H1155.63C1143.81 1769.19 1134.55 1759.93 1134.55 1748.11V1605.11C1134.55 1592.26 1142.26 1584.55 1155.11 1584.55H1408.47C1421.32 1584.55 1429.03 1592.26 1429.03 1605.11V1705.46Z" fill="#FFB6F8"/>
<path fill-rule="evenodd" clip-rule="evenodd" d="M1438.36 1600.55C1438.36 1592 1445.33 1587.39 1458.29 1587.39H1703.93C1716.89 1587.39 1723.87 1592 1723.87 1600.55V1712.99C1723.87 1721.54 1716.89 1726.15 1703.93 1726.15H1458.29C1445.33 1726.15 1438.36 1721.54 1438.36 1712.99V1600.55ZM1580.86 1712.98C1587.34 1712.98 1592.82 1709.69 1592.82 1705.41V1607.13C1592.82 1602.85 1587.34 1599.56 1580.86 1599.56C1574.39 1599.56 1569.4 1602.85 1569.4 1607.13V1705.41C1569.4 1709.69 1574.39 1712.98 1580.86 1712.98Z" fill="#FFB6F8"/>
<path fill-rule="evenodd" clip-rule="evenodd" d="M1454.9 1956.67C1441.54 1956.67 1434.34 1963.87 1434.34 1977.23V2183.06C1434.34 2196.42 1441.54 2203.62 1454.9 2203.62H1702.26C1715.62 2203.62 1722.82 2196.42 1722.82 2183.06C1722.82 2169.7 1722.82 1770.57 1722.82 1770.57C1722.82 1757.72 1715.11 1750.01 1702.26 1750.01H1614.21C1600.85 1750.01 1593.66 1757.21 1593.66 1770.57V1944.34C1593.66 1951.02 1588.52 1956.67 1581.84 1956.67H1454.9ZM1569.5 1987.51C1569.5 1980.83 1575.15 1975.69 1581.84 1975.69C1588.52 1975.69 1593.66 1980.83 1593.66 1987.51V2172.78C1593.66 2179.47 1588.52 2184.6 1581.84 2184.6C1575.15 2184.6 1569.5 2179.47 1569.5 2172.78V1987.51Z" fill="#FFB6F8"/>
<path d="M2078.14 1906.63C2065.29 1906.63 2057.58 1927.19 2057.58 1927.19V2183.03C2057.58 2195.87 2065.29 2203.58 2078.14 2203.58H2172.18C2185.03 2203.58 2192.74 2195.87 2192.74 2183.03V1927.19C2192.74 1914.34 2185.03 1906.63 2172.18 1906.63H2078.14Z" fill="#FFB6F8"/>
<path d="M1739.26 1977.19C1739.26 1963.83 1746.45 1956.63 1759.81 1956.63C1759.81 1956.63 1999.81 1956.63 2013.18 1956.63C2026.54 1956.63 2033.73 1963.83 2033.73 1977.19V2033.21C2033.73 2045.03 2024.48 2131.66 2012.66 2131.66H1898.57V1987.47C1898.57 1980.79 1892.92 1975.65 1886.24 1975.65C1879.56 1975.65 1874.42 1980.79 1874.42 1987.47V2183.03C1874.42 2196.39 1867.22 2203.58 1853.86 2203.58H1759.81C1746.97 2203.58 1739.26 2195.87 1739.26 2183.03V1977.19Z" fill="#FFB6F8"/>
<path d="M2346.17 2184.57C2352.86 2184.57 2356.45 2179.94 2356.45 2172.75L2360.56 1956.63H2462.83C2476.2 1956.63 2483.91 1964.86 2482.36 1978.22L2464.89 2184.05C2463.86 2196.9 2456.15 2203.58 2443.31 2203.58H2249.04C2236.2 2203.58 2228.49 2196.9 2227.46 2184.05L2209.99 1978.22C2208.44 1964.86 2216.15 1956.63 2229.52 1956.63H2331.79L2335.9 2172.75C2335.9 2179.94 2339.49 2184.57 2346.17 2184.57Z" fill="#FFB6F8"/>
<path fill-rule="evenodd" clip-rule="evenodd" d="M2638.27 2171.72C2638.27 2178.4 2643.41 2184.05 2650.09 2184.05H2788.33C2793.47 2184.05 2798.1 2188.68 2798.1 2193.82C2798.1 2198.96 2793.47 2203.58 2788.33 2203.58H2523.66C2510.81 2203.58 2503.11 2195.87 2503.11 2183.03V1977.19C2503.11 1963.83 2510.3 1956.63 2523.66 1956.63H2777.02C2790.39 1956.63 2797.58 1963.83 2797.58 1977.19C2797.58 1977.19 2797.58 2093.6 2797.58 2106.97C2797.58 2120.33 2790.39 2127.52 2777.02 2127.52H2650.09C2643.41 2127.52 2638.27 2133.18 2638.27 2139.86V2171.72ZM2650.09 1975.65C2643.41 1975.65 2638.27 1980.79 2638.27 1987.47V2096.69C2638.27 2103.37 2643.41 2108.51 2650.09 2108.51C2656.77 2108.51 2662.42 2103.37 2662.42 2096.69V1987.47C2662.42 1980.79 2656.77 1975.65 2650.09 1975.65Z" fill="#FFB6F8"/>
<path d="M2125 1960C2183.3 1960 2196 1951.62 2196 1919.04C2196 1887.38 2183.3 1879 2125 1879C2066.7 1879 2054 1887.38 2054 1919.04C2054 1951.62 2066.7 1960 2125 1960Z" fill="white"/>
</g>
<path d="M2196 1919.03C2196 1951.62 2183.3 1960 2125 1960C2066.7 1960 2054 1951.62 2054 1919.03C2054 1887.38 2066.7 1879 2125 1879C2183.3 1879 2196 1887.38 2196 1919.03Z" fill="white"/>
<g filter="url(#filter1_i_438_543)">
<g filter="url(#filter2_i_438_543)">
<path d="M82.1424 25C50.5835 25 25 50.0238 25 80.8923V378.327C25 409.195 50.5835 434.219 82.1424 434.219H324.998V656.108C324.998 686.976 350.581 712 382.14 712H1032.14H1691.13C1722.69 712 1748.27 686.976 1748.27 656.108V446.246C1748.27 415.378 1722.69 390.354 1691.13 390.354H1210.71V80.8923C1210.71 50.0238 1185.12 25 1153.56 25H82.1424Z" fill="white"/>
</g>
<path d="M82.1424 12.5C43.9421 12.5 12.5 42.8611 12.5 80.8923V378.327C12.5 416.358 43.9421 446.719 82.1424 446.719H312.498V656.108C312.498 694.139 343.94 724.5 382.14 724.5H1032.14H1691.13C1729.33 724.5 1760.77 694.139 1760.77 656.108V446.246C1760.77 408.215 1729.33 377.854 1691.13 377.854H1223.21V80.8923C1223.21 42.8611 1191.76 12.5 1153.56 12.5H82.1424Z" stroke="#FFB6F8" stroke-width="25"/>
<g filter="url(#filter3_i_438_543)">
<path d="M881.249 65.4695C881.249 70.6087 876.624 75.234 871.485 75.234H807.245C800.564 75.234 795.425 80.8871 795.425 87.5681V204.881H863.262C868.402 204.881 873.027 209.506 873.027 214.645C873.027 219.785 868.402 224.41 863.262 224.41H807.245C800.564 224.41 795.425 230.063 795.425 236.744V371.434C795.425 381.198 788.23 402.449 775.896 402.449H680.821C667.973 402.449 660.264 382.74 660.264 369.892V76.2618C660.264 63.4139 667.973 55.7051 680.821 55.7051H871.485C876.624 55.7051 881.249 60.3303 881.249 65.4695Z" fill="url(#paint0_diamond_438_543)"/>
<path d="M911.43 55.7051H1176.1C1181.24 55.7051 1185.86 60.3303 1185.86 65.4695C1185.86 70.6087 1181.24 75.234 1176.1 75.234H1111.34V391.437C1111.34 404.285 1103.64 411.994 1090.79 411.994H996.741C983.893 411.994 976.184 404.285 976.184 391.437V75.234H911.43C906.291 75.234 901.666 70.6087 901.666 65.4695C901.666 60.3303 906.291 55.7051 911.43 55.7051Z" fill="url(#paint1_diamond_438_543)"/>
<path d="M348.03 179.459C348.03 191.279 338.78 200.53 326.96 200.53H212.87V89.3842C212.87 82.7032 207.216 77.564 200.535 77.564C193.855 77.564 188.715 82.7032 188.715 89.3842V223.656H326.96C338.78 223.656 348.03 232.907 348.03 244.727V382.736C348.03 395.583 340.321 403.292 327.473 403.292H74.1114C61.2635 403.292 53.5547 395.583 53.5547 382.736V287.382C53.5547 275.562 62.8052 266.311 74.6254 266.311H188.715V372.457C188.715 379.138 194.368 384.277 201.049 384.277C207.73 384.277 212.87 379.138 212.87 372.457V243.185H74.6254C62.8052 243.185 53.5547 233.935 53.5547 222.114V79.1058C53.5547 66.2578 61.2635 58.549 74.1114 58.549H327.473C340.321 58.549 348.03 66.2578 348.03 79.1058V179.459Z" fill="url(#paint2_diamond_438_543)"/>
<path fill-rule="evenodd" clip-rule="evenodd" d="M357.356 74.5502C357.356 65.998 364.334 61.393 377.289 61.393H622.935C635.89 61.393 642.866 65.998 642.866 74.5502V186.99C642.866 195.543 635.89 200.148 622.935 200.148H377.289C364.334 200.148 357.356 195.543 357.356 186.99V74.5502ZM499.863 186.978C506.341 186.978 511.82 183.689 511.82 179.412V81.1287C511.82 76.8527 506.341 73.5634 499.863 73.5634C493.386 73.5634 488.404 76.8527 488.404 81.1287V179.412C488.404 183.689 493.386 186.978 499.863 186.978Z" fill="url(#paint3_diamond_438_543)"/>
<path fill-rule="evenodd" clip-rule="evenodd" d="M373.897 430.671C360.536 430.671 353.341 437.866 353.341 451.228V657.063C353.341 670.425 360.536 677.62 373.897 677.62H621.259C634.621 677.62 641.816 670.425 641.816 657.063C641.816 643.701 641.816 244.568 641.816 244.568C641.816 231.72 634.107 224.011 621.259 224.011H533.212C519.85 224.011 512.656 231.206 512.656 244.568V418.337C512.656 425.018 507.516 430.671 500.835 430.671H373.897ZM488.501 461.506C488.501 454.825 494.154 449.686 500.835 449.686C507.516 449.686 512.656 454.825 512.656 461.506V646.784C512.656 653.465 507.516 658.604 500.835 658.604C494.154 658.604 488.501 653.465 488.501 646.784V461.506Z" fill="url(#paint4_diamond_438_543)"/>
<path d="M997.137 380.634C984.289 380.634 976.579 401.191 976.579 401.191V657.026C976.579 669.874 984.289 677.583 997.137 677.583H1091.18C1104.03 677.583 1111.74 669.874 1111.74 657.026V401.191C1111.74 388.343 1104.03 380.634 1091.18 380.634H997.137Z" fill="url(#paint5_diamond_438_543)"/>
<path d="M658.257 451.191C658.257 437.829 665.452 430.634 678.814 430.634H932.176C945.538 430.634 952.732 437.829 952.732 451.191V507.208C952.732 519.028 943.482 605.659 931.662 605.659H817.572V461.47C817.572 454.789 811.919 449.649 805.238 449.649C798.557 449.649 793.418 454.789 793.418 461.47V657.026C793.418 670.388 786.223 677.583 772.861 677.583H678.814C665.966 677.583 658.257 669.874 658.257 657.026V451.191Z" fill="url(#paint6_diamond_438_543)"/>
<path d="M1265.17 658.568C1271.86 658.568 1275.45 653.943 1275.45 646.748L1279.56 430.634H1381.83C1395.2 430.634 1402.91 438.857 1401.36 452.219L1383.89 658.054C1382.86 670.902 1375.15 677.583 1362.31 677.583H1168.04C1155.2 677.583 1147.49 670.902 1146.46 658.054L1128.99 452.219C1127.44 438.857 1135.15 430.634 1148.52 430.634H1250.79L1254.9 646.748C1254.9 653.943 1258.49 658.568 1265.17 658.568Z" fill="url(#paint7_diamond_438_543)"/>
<path fill-rule="evenodd" clip-rule="evenodd" d="M1557.27 645.72C1557.27 652.401 1562.41 658.054 1569.09 658.054H1707.33C1712.47 658.054 1717.1 662.679 1717.1 667.818C1717.1 672.958 1712.47 677.583 1707.33 677.583H1442.66C1429.81 677.583 1422.11 669.874 1422.11 657.026V451.191C1422.11 437.829 1429.3 430.634 1442.66 430.634H1696.02C1709.39 430.634 1716.58 437.829 1716.58 451.191C1716.58 451.191 1716.58 567.604 1716.58 580.966C1716.58 594.328 1709.39 601.523 1696.02 601.523H1569.09C1562.41 601.523 1557.27 607.176 1557.27 613.857V645.72ZM1569.09 449.649C1562.41 449.649 1557.27 454.789 1557.27 461.47V570.688C1557.27 577.369 1562.41 582.508 1569.09 582.508C1575.77 582.508 1581.42 577.369 1581.42 570.688V461.47C1581.42 454.789 1575.77 449.649 1569.09 449.649Z" fill="url(#paint8_diamond_438_543)"/>
<path d="M1044 434.001C1102.3 434.001 1115 425.622 1115 393.035C1115 361.38 1102.3 353.001 1044 353.001C985.702 353.001 973 361.38 973 393.035C973 425.622 985.702 434.001 1044 434.001Z" fill="white"/>
</g>
</g>
<g filter="url(#filter4_i_438_543)">
<g filter="url(#filter5_i_438_543)">
<path d="M1713.14 2304C1681.58 2304 1656 2329.02 1656 2359.89V2657.33C1656 2688.2 1681.58 2713.22 1713.14 2713.22H1956V2935.11C1956 2965.98 1981.58 2991 2013.14 2991H2663.14H3322.13C3353.69 2991 3379.27 2965.98 3379.27 2935.11V2725.25C3379.27 2694.38 3353.69 2669.35 3322.13 2669.35H2841.71V2359.89C2841.71 2329.02 2816.12 2304 2784.56 2304H1713.14Z" fill="white"/>
</g>
<path d="M1713.14 2291.5C1674.94 2291.5 1643.5 2321.86 1643.5 2359.89V2657.33C1643.5 2695.36 1674.94 2725.72 1713.14 2725.72H1943.5V2935.11C1943.5 2973.14 1974.94 3003.5 2013.14 3003.5H2663.14H3322.13C3360.33 3003.5 3391.77 2973.14 3391.77 2935.11V2725.25C3391.77 2687.21 3360.33 2656.85 3322.13 2656.85H2854.21V2359.89C2854.21 2321.86 2822.76 2291.5 2784.56 2291.5H1713.14Z" stroke="#FFB6F8" stroke-width="25"/>
<g filter="url(#filter6_i_438_543)">
<path d="M2512.25 2344.47C2512.25 2349.61 2507.62 2354.23 2502.49 2354.23H2438.25C2431.56 2354.23 2426.43 2359.89 2426.43 2366.57V2483.88H2494.26C2499.4 2483.88 2504.03 2488.51 2504.03 2493.64C2504.03 2498.78 2499.4 2503.41 2494.26 2503.41H2438.25C2431.56 2503.41 2426.43 2509.06 2426.43 2515.74V2650.43C2426.43 2660.2 2419.23 2681.45 2406.9 2681.45H2311.82C2298.97 2681.45 2291.26 2661.74 2291.26 2648.89V2355.26C2291.26 2342.41 2298.97 2334.7 2311.82 2334.7H2502.49C2507.62 2334.7 2512.25 2339.33 2512.25 2344.47Z" fill="url(#paint9_linear_438_543)"/>
<path d="M2542.43 2334.7H2807.1C2812.24 2334.7 2816.86 2339.33 2816.86 2344.47C2816.86 2349.61 2812.24 2354.23 2807.1 2354.23H2742.34V2670.44C2742.34 2683.28 2734.64 2690.99 2721.79 2690.99H2627.74C2614.89 2690.99 2607.18 2683.28 2607.18 2670.44V2354.23H2542.43C2537.29 2354.23 2532.67 2349.61 2532.67 2344.47C2532.67 2339.33 2537.29 2334.7 2542.43 2334.7Z" fill="url(#paint10_linear_438_543)"/>
<path d="M1979.03 2458.46C1979.03 2470.28 1969.78 2479.53 1957.96 2479.53H1843.87V2368.38C1843.87 2361.7 1838.22 2356.56 1831.54 2356.56C1824.85 2356.56 1819.72 2361.7 1819.72 2368.38V2502.66H1957.96C1969.78 2502.66 1979.03 2511.91 1979.03 2523.73V2661.73C1979.03 2674.58 1971.32 2682.29 1958.47 2682.29H1705.11C1692.26 2682.29 1684.55 2674.58 1684.55 2661.73V2566.38C1684.55 2554.56 1693.81 2545.31 1705.63 2545.31H1819.72V2651.46C1819.72 2658.14 1825.37 2663.28 1832.05 2663.28C1838.73 2663.28 1843.87 2658.14 1843.87 2651.46V2522.18H1705.63C1693.81 2522.18 1684.55 2512.93 1684.55 2501.11V2358.1C1684.55 2345.26 1692.26 2337.55 1705.11 2337.55H1958.47C1971.32 2337.55 1979.03 2345.26 1979.03 2358.1V2458.46Z" fill="url(#paint11_linear_438_543)"/>
<path fill-rule="evenodd" clip-rule="evenodd" d="M1988.36 2353.55C1988.36 2345 1995.33 2340.39 2008.29 2340.39H2253.93C2266.89 2340.39 2273.87 2345 2273.87 2353.55V2465.99C2273.87 2474.54 2266.89 2479.15 2253.93 2479.15H2008.29C1995.33 2479.15 1988.36 2474.54 1988.36 2465.99V2353.55ZM2130.86 2465.98C2137.34 2465.98 2142.82 2462.69 2142.82 2458.41V2360.13C2142.82 2355.85 2137.34 2352.56 2130.86 2352.56C2124.39 2352.56 2119.4 2355.85 2119.4 2360.13V2458.41C2119.4 2462.69 2124.39 2465.98 2130.86 2465.98Z" fill="url(#paint12_linear_438_543)"/>
<path fill-rule="evenodd" clip-rule="evenodd" d="M2004.9 2709.67C1991.54 2709.67 1984.34 2716.86 1984.34 2730.23V2936.06C1984.34 2949.42 1991.54 2956.62 2004.9 2956.62H2252.26C2265.62 2956.62 2272.82 2949.42 2272.82 2936.06C2272.82 2922.7 2272.82 2523.57 2272.82 2523.57C2272.82 2510.72 2265.11 2503.01 2252.26 2503.01H2164.21C2150.85 2503.01 2143.66 2510.21 2143.66 2523.57V2697.34C2143.66 2704.02 2138.52 2709.67 2131.84 2709.67H2004.9ZM2119.5 2740.51C2119.5 2733.82 2125.15 2728.69 2131.84 2728.69C2138.52 2728.69 2143.66 2733.82 2143.66 2740.51V2925.78C2143.66 2932.46 2138.52 2937.6 2131.84 2937.6C2125.15 2937.6 2119.5 2932.46 2119.5 2925.78V2740.51Z" fill="url(#paint13_linear_438_543)"/>
<path d="M2628.14 2659.63C2615.29 2659.63 2607.58 2680.19 2607.58 2680.19V2936.03C2607.58 2948.87 2615.29 2956.58 2628.14 2956.58H2722.18C2735.03 2956.58 2742.74 2948.87 2742.74 2936.03V2680.19C2742.74 2667.34 2735.03 2659.63 2722.18 2659.63H2628.14Z" fill="url(#paint14_linear_438_543)"/>
<path d="M2289.26 2730.19C2289.26 2716.83 2296.45 2709.63 2309.81 2709.63H2563.18C2576.54 2709.63 2583.73 2716.83 2583.73 2730.19V2786.21C2583.73 2798.03 2574.48 2884.66 2562.66 2884.66H2448.57V2740.47C2448.57 2733.79 2442.92 2728.65 2436.24 2728.65C2429.56 2728.65 2424.42 2733.79 2424.42 2740.47V2936.03C2424.42 2949.39 2417.22 2956.58 2403.86 2956.58H2309.81C2296.97 2956.58 2289.26 2948.87 2289.26 2936.03V2730.19Z" fill="url(#paint15_linear_438_543)"/>
<path d="M2896.17 2937.57C2902.86 2937.57 2906.45 2932.94 2906.45 2925.75L2910.56 2709.63H3012.83C3026.2 2709.63 3033.91 2717.86 3032.36 2731.22L3014.89 2937.05C3013.86 2949.9 3006.15 2956.58 2993.31 2956.58H2799.04C2786.2 2956.58 2778.49 2949.9 2777.46 2937.05L2759.99 2731.22C2758.44 2717.86 2766.15 2709.63 2779.52 2709.63H2881.79L2885.9 2925.75C2885.9 2932.94 2889.49 2937.57 2896.17 2937.57Z" fill="url(#paint16_linear_438_543)"/>
<path fill-rule="evenodd" clip-rule="evenodd" d="M3188.27 2924.72C3188.27 2931.4 3193.41 2937.05 3200.09 2937.05H3338.33C3343.47 2937.05 3348.1 2941.68 3348.1 2946.82C3348.1 2951.96 3343.47 2956.58 3338.33 2956.58H3073.66C3060.81 2956.58 3053.11 2948.87 3053.11 2936.03V2730.19C3053.11 2716.83 3060.3 2709.63 3073.66 2709.63H3327.02C3340.39 2709.63 3347.58 2716.83 3347.58 2730.19C3347.58 2730.19 3347.58 2846.6 3347.58 2859.97C3347.58 2873.33 3340.39 2880.52 3327.02 2880.52H3200.09C3193.41 2880.52 3188.27 2886.18 3188.27 2892.86V2924.72ZM3200.09 2728.65C3193.41 2728.65 3188.27 2733.79 3188.27 2740.47V2849.69C3188.27 2856.37 3193.41 2861.51 3200.09 2861.51C3206.77 2861.51 3212.42 2856.37 3212.42 2849.69V2740.47C3212.42 2733.79 3206.77 2728.65 3200.09 2728.65Z" fill="url(#paint17_linear_438_543)"/>
<path d="M2675 2713C2733.3 2713 2746 2704.62 2746 2672.03C2746 2640.38 2733.3 2632 2675 2632C2616.7 2632 2604 2640.38 2604 2672.03C2604 2704.62 2616.7 2713 2675 2713Z" fill="white"/>
</g>
</g>
<defs>
<filter id="filter0_i_438_543" x="1134.55" y="1581.71" width="1673.54" height="631.914" filterUnits="userSpaceOnUse" color-interpolation-filters="sRGB">
<feFlood flood-opacity="0" result="BackgroundImageFix"/>
<feBlend mode="normal" in="SourceGraphic" in2="BackgroundImageFix" result="shape"/>
<feColorMatrix in="SourceAlpha" type="matrix" values="0 0 0 0 0 0 0 0 0 0 0 0 0 0 0 0 0 0 127 0" result="hardAlpha"/>
<feOffset dx="10" dy="10"/>
<feGaussianBlur stdDeviation="5"/>
<feComposite in2="hardAlpha" operator="arithmetic" k2="-1" k3="1"/>
<feColorMatrix type="matrix" values="0 0 0 0 0.713726 0 0 0 0 1 0 0 0 0 0.742353 0 0 0 1 0"/>
<feBlend mode="normal" in2="shape" result="effect1_innerShadow_438_543"/>
</filter>
<filter id="filter1_i_438_543" x="0" y="0" width="1773.27" height="741" filterUnits="userSpaceOnUse" color-interpolation-filters="sRGB">
<feFlood flood-opacity="0" result="BackgroundImageFix"/>
<feBlend mode="normal" in="SourceGraphic" in2="BackgroundImageFix" result="shape"/>
<feColorMatrix in="SourceAlpha" type="matrix" values="0 0 0 0 0 0 0 0 0 0 0 0 0 0 0 0 0 0 127 0" result="hardAlpha"/>
<feOffset dy="4"/>
<feGaussianBlur stdDeviation="2"/>
<feComposite in2="hardAlpha" operator="arithmetic" k2="-1" k3="1"/>
<feColorMatrix type="matrix" values="0 0 0 0 0 0 0 0 0 0 0 0 0 0 0 0 0 0 0.25 0"/>
<feBlend mode="normal" in2="shape" result="effect1_innerShadow_438_543"/>
</filter>
<filter id="filter2_i_438_543" x="0" y="0" width="1773.27" height="741" filterUnits="userSpaceOnUse" color-interpolation-filters="sRGB">
<feFlood flood-opacity="0" result="BackgroundImageFix"/>
<feBlend mode="normal" in="SourceGraphic" in2="BackgroundImageFix" result="shape"/>
<feColorMatrix in="SourceAlpha" type="matrix" values="0 0 0 0 0 0 0 0 0 0 0 0 0 0 0 0 0 0 127 0" result="hardAlpha"/>
<feOffset dy="4"/>
<feGaussianBlur stdDeviation="2"/>
<feComposite in2="hardAlpha" operator="arithmetic" k2="-1" k3="1"/>
<feColorMatrix type="matrix" values="0 0 0 0 0 0 0 0 0 0 0 0 0 0 0 0 0 0 0.25 0"/>
<feBlend mode="normal" in2="shape" result="effect1_innerShadow_438_543"/>
</filter>
<filter id="filter3_i_438_543" x="53.5547" y="55.7051" width="1673.54" height="631.914" filterUnits="userSpaceOnUse" color-interpolation-filters="sRGB">
<feFlood flood-opacity="0" result="BackgroundImageFix"/>
<feBlend mode="normal" in="SourceGraphic" in2="BackgroundImageFix" result="shape"/>
<feColorMatrix in="SourceAlpha" type="matrix" values="0 0 0 0 0 0 0 0 0 0 0 0 0 0 0 0 0 0 127 0" result="hardAlpha"/>
<feOffset dx="10" dy="10"/>
<feGaussianBlur stdDeviation="5"/>
<feComposite in2="hardAlpha" operator="arithmetic" k2="-1" k3="1"/>
<feColorMatrix type="matrix" values="0 0 0 0 0.717647 0 0 0 0 0.774588 0 0 0 0 0.976471 0 0 0 1 0"/>
<feBlend mode="normal" in2="shape" result="effect1_innerShadow_438_543"/>
</filter>
<filter id="filter4_i_438_543" x="1631" y="2279" width="1773.27" height="741" filterUnits="userSpaceOnUse" color-interpolation-filters="sRGB">
<feFlood flood-opacity="0" result="BackgroundImageFix"/>
<feBlend mode="normal" in="SourceGraphic" in2="BackgroundImageFix" result="shape"/>
<feColorMatrix in="SourceAlpha" type="matrix" values="0 0 0 0 0 0 0 0 0 0 0 0 0 0 0 0 0 0 127 0" result="hardAlpha"/>
<feOffset dy="4"/>
<feGaussianBlur stdDeviation="2"/>
<feComposite in2="hardAlpha" operator="arithmetic" k2="-1" k3="1"/>
<feColorMatrix type="matrix" values="0 0 0 0 0 0 0 0 0 0 0 0 0 0 0 0 0 0 0.25 0"/>
<feBlend mode="normal" in2="shape" result="effect1_innerShadow_438_543"/>
</filter>
<filter id="filter5_i_438_543" x="1631" y="2279" width="1773.27" height="741" filterUnits="userSpaceOnUse" color-interpolation-filters="sRGB">
<feFlood flood-opacity="0" result="BackgroundImageFix"/>
<feBlend mode="normal" in="SourceGraphic" in2="BackgroundImageFix" result="shape"/>
<feColorMatrix in="SourceAlpha" type="matrix" values="0 0 0 0 0 0 0 0 0 0 0 0 0 0 0 0 0 0 127 0" result="hardAlpha"/>
<feOffset dy="4"/>
<feGaussianBlur stdDeviation="2"/>
<feComposite in2="hardAlpha" operator="arithmetic" k2="-1" k3="1"/>
<feColorMatrix type="matrix" values="0 0 0 0 0 0 0 0 0 0 0 0 0 0 0 0 0 0 0.25 0"/>
<feBlend mode="normal" in2="shape" result="effect1_innerShadow_438_543"/>
</filter>
<filter id="filter6_i_438_543" x="1684.55" y="2334.7" width="1673.54" height="631.914" filterUnits="userSpaceOnUse" color-interpolation-filters="sRGB">
<feFlood flood-opacity="0" result="BackgroundImageFix"/>
<feBlend mode="normal" in="SourceGraphic" in2="BackgroundImageFix" result="shape"/>
<feColorMatrix in="SourceAlpha" type="matrix" values="0 0 0 0 0 0 0 0 0 0 0 0 0 0 0 0 0 0 127 0" result="hardAlpha"/>
<feOffset dx="10" dy="10"/>
<feGaussianBlur stdDeviation="5"/>
<feComposite in2="hardAlpha" operator="arithmetic" k2="-1" k3="1"/>
<feColorMatrix type="matrix" values="0 0 0 0 0.717647 0 0 0 0 0.774588 0 0 0 0 0.976471 0 0 0 1 0"/>
<feBlend mode="normal" in2="shape" result="effect1_innerShadow_438_543"/>
</filter>
<radialGradient id="paint0_diamond_438_543" cx="0" cy="0" r="1" gradientUnits="userSpaceOnUse" gradientTransform="translate(885.325 366.662) rotate(90) scale(310.957 831.77)">
<stop stop-color="#F5B6FF" stop-opacity="0.27"/>
<stop offset="0.0001" stop-color="#FFB6F8" stop-opacity="0.97"/>
<stop offset="0.755208" stop-color="#FFB6F8" stop-opacity="0.62"/>
</radialGradient>
<radialGradient id="paint1_diamond_438_543" cx="0" cy="0" r="1" gradientUnits="userSpaceOnUse" gradientTransform="translate(885.325 366.662) rotate(90) scale(310.957 831.77)">
<stop stop-color="#F5B6FF" stop-opacity="0.27"/>
<stop offset="0.0001" stop-color="#FFB6F8" stop-opacity="0.97"/>
<stop offset="0.755208" stop-color="#FFB6F8" stop-opacity="0.62"/>
</radialGradient>
<radialGradient id="paint2_diamond_438_543" cx="0" cy="0" r="1" gradientUnits="userSpaceOnUse" gradientTransform="translate(885.325 366.662) rotate(90) scale(310.957 831.77)">
<stop stop-color="#F5B6FF" stop-opacity="0.27"/>
<stop offset="0.0001" stop-color="#FFB6F8" stop-opacity="0.97"/>
<stop offset="0.755208" stop-color="#FFB6F8" stop-opacity="0.62"/>
</radialGradient>
<radialGradient id="paint3_diamond_438_543" cx="0" cy="0" r="1" gradientUnits="userSpaceOnUse" gradientTransform="translate(885.325 366.662) rotate(90) scale(310.957 831.77)">
<stop stop-color="#F5B6FF" stop-opacity="0.27"/>
<stop offset="0.0001" stop-color="#FFB6F8" stop-opacity="0.97"/>
<stop offset="0.755208" stop-color="#FFB6F8" stop-opacity="0.62"/>
</radialGradient>
<radialGradient id="paint4_diamond_438_543" cx="0" cy="0" r="1" gradientUnits="userSpaceOnUse" gradientTransform="translate(885.325 366.662) rotate(90) scale(310.957 831.77)">
<stop stop-color="#F5B6FF" stop-opacity="0.27"/>
<stop offset="0.0001" stop-color="#FFB6F8" stop-opacity="0.97"/>
<stop offset="0.755208" stop-color="#FFB6F8" stop-opacity="0.62"/>
</radialGradient>
<radialGradient id="paint5_diamond_438_543" cx="0" cy="0" r="1" gradientUnits="userSpaceOnUse" gradientTransform="translate(885.325 366.662) rotate(90) scale(310.957 831.77)">
<stop stop-color="#F5B6FF" stop-opacity="0.27"/>
<stop offset="0.0001" stop-color="#FFB6F8" stop-opacity="0.97"/>
<stop offset="0.755208" stop-color="#FFB6F8" stop-opacity="0.62"/>
</radialGradient>
<radialGradient id="paint6_diamond_438_543" cx="0" cy="0" r="1" gradientUnits="userSpaceOnUse" gradientTransform="translate(885.325 366.662) rotate(90) scale(310.957 831.77)">
<stop stop-color="#F5B6FF" stop-opacity="0.27"/>
<stop offset="0.0001" stop-color="#FFB6F8" stop-opacity="0.97"/>
<stop offset="0.755208" stop-color="#FFB6F8" stop-opacity="0.62"/>
</radialGradient>
<radialGradient id="paint7_diamond_438_543" cx="0" cy="0" r="1" gradientUnits="userSpaceOnUse" gradientTransform="translate(885.325 366.662) rotate(90) scale(310.957 831.77)">
<stop stop-color="#F5B6FF" stop-opacity="0.27"/>
<stop offset="0.0001" stop-color="#FFB6F8" stop-opacity="0.97"/>
<stop offset="0.755208" stop-color="#FFB6F8" stop-opacity="0.62"/>
</radialGradient>
<radialGradient id="paint8_diamond_438_543" cx="0" cy="0" r="1" gradientUnits="userSpaceOnUse" gradientTransform="translate(885.325 366.662) rotate(90) scale(310.957 831.77)">
<stop stop-color="#F5B6FF" stop-opacity="0.27"/>
<stop offset="0.0001" stop-color="#FFB6F8" stop-opacity="0.97"/>
<stop offset="0.755208" stop-color="#FFB6F8" stop-opacity="0.62"/>
</radialGradient>
<linearGradient id="paint9_linear_438_543" x1="2516.33" y1="2334.7" x2="2516.33" y2="2956.62" gradientUnits="userSpaceOnUse">
<stop stop-color="#F5B6FF" stop-opacity="0.27"/>
<stop offset="0.0001" stop-color="#FFB6F8"/>
<stop offset="0.755208" stop-color="#FFB6F8"/>
</linearGradient>
<linearGradient id="paint10_linear_438_543" x1="2516.33" y1="2334.7" x2="2516.33" y2="2956.62" gradientUnits="userSpaceOnUse">
<stop stop-color="#F5B6FF" stop-opacity="0.27"/>
<stop offset="0.0001" stop-color="#FFB6F8"/>
<stop offset="0.755208" stop-color="#FFB6F8"/>
</linearGradient>
<linearGradient id="paint11_linear_438_543" x1="2516.33" y1="2334.7" x2="2516.33" y2="2956.62" gradientUnits="userSpaceOnUse">
<stop stop-color="#F5B6FF" stop-opacity="0.27"/>
<stop offset="0.0001" stop-color="#FFB6F8"/>
<stop offset="0.755208" stop-color="#FFB6F8"/>
</linearGradient>
<linearGradient id="paint12_linear_438_543" x1="2516.33" y1="2334.7" x2="2516.33" y2="2956.62" gradientUnits="userSpaceOnUse">
<stop stop-color="#F5B6FF" stop-opacity="0.27"/>
<stop offset="0.0001" stop-color="#FFB6F8"/>
<stop offset="0.755208" stop-color="#FFB6F8"/>
</linearGradient>
<linearGradient id="paint13_linear_438_543" x1="2516.33" y1="2334.7" x2="2516.33" y2="2956.62" gradientUnits="userSpaceOnUse">
<stop stop-color="#F5B6FF" stop-opacity="0.27"/>
<stop offset="0.0001" stop-color="#FFB6F8"/>
<stop offset="0.755208" stop-color="#FFB6F8"/>
</linearGradient>
<linearGradient id="paint14_linear_438_543" x1="2516.33" y1="2334.7" x2="2516.33" y2="2956.62" gradientUnits="userSpaceOnUse">
<stop stop-color="#F5B6FF" stop-opacity="0.27"/>
<stop offset="0.0001" stop-color="#FFB6F8"/>
<stop offset="0.755208" stop-color="#FFB6F8"/>
</linearGradient>
<linearGradient id="paint15_linear_438_543" x1="2516.33" y1="2334.7" x2="2516.33" y2="2956.62" gradientUnits="userSpaceOnUse">
<stop stop-color="#F5B6FF" stop-opacity="0.27"/>
<stop offset="0.0001" stop-color="#FFB6F8"/>
<stop offset="0.755208" stop-color="#FFB6F8"/>
</linearGradient>
<linearGradient id="paint16_linear_438_543" x1="2516.33" y1="2334.7" x2="2516.33" y2="2956.62" gradientUnits="userSpaceOnUse">
<stop stop-color="#F5B6FF" stop-opacity="0.27"/>
<stop offset="0.0001" stop-color="#FFB6F8"/>
<stop offset="0.755208" stop-color="#FFB6F8"/>
</linearGradient>
<linearGradient id="paint17_linear_438_543" x1="2516.33" y1="2334.7" x2="2516.33" y2="2956.62" gradientUnits="userSpaceOnUse">
<stop stop-color="#F5B6FF" stop-opacity="0.27"/>
<stop offset="0.0001" stop-color="#FFB6F8"/>
<stop offset="0.755208" stop-color="#FFB6F8"/>
</linearGradient>
</defs>
</svg>
