<svg width="656" height="276" viewBox="0 0 656 276" fill="none" xmlns="http://www.w3.org/2000/svg">
<mask id="mask0_448_459" style="mask-type:alpha" maskUnits="userSpaceOnUse" x="0" y="0" width="656" height="276">
<rect width="656" height="276" fill="white"/>
</mask>
<g mask="url(#mask0_448_459)">
<g filter="url(#filter0_dd_448_459)">
<path fill-rule="evenodd" clip-rule="evenodd" d="M656 0H0V276H656V0ZM15 49.7638C15 29.1036 33.333 16 51.1388 16H419.861C437.667 16 456 29.1036 456 49.7638V129.021H604.861C622.667 129.021 641 142.124 641 162.784V227.705C641 248.365 622.667 261.468 604.861 261.468H154.381C136.575 261.468 118.242 248.365 118.242 227.705V175.538H51.1388C33.333 175.538 15 162.434 15 141.774V49.7638ZM51.1388 32.4737C40.1812 32.4737 31.4737 40.2993 31.4737 49.7638V141.774C31.4737 151.238 40.1813 159.064 51.1388 159.064H134.716V227.705C134.716 237.169 143.423 244.995 154.381 244.995H604.861C615.819 244.995 624.526 237.169 624.526 227.705V162.784C624.526 153.32 615.819 145.494 604.861 145.494H439.526V49.7638C439.526 40.2993 430.819 32.4737 419.861 32.4737H51.1388ZM322.782 48.6721C324.551 48.6721 326.142 47.2412 326.142 45.6515C326.142 44.0617 324.551 42.6309 322.782 42.6309H257.166C252.745 42.6309 250.092 45.0155 250.092 48.99V139.823C250.092 143.798 252.745 149.895 257.166 149.895H289.886C294.13 149.895 296.607 143.321 296.607 140.3V98.6346C296.607 96.5679 298.375 94.8191 300.674 94.8191H319.952C321.721 94.8191 323.313 93.3883 323.313 91.7985C323.313 90.2087 321.721 88.7779 319.952 88.7779H296.607V52.4876C296.607 50.4208 298.375 48.6721 300.674 48.6721H322.782ZM427.613 42.6309H336.529C334.76 42.6309 333.169 44.0617 333.169 45.6515C333.169 47.2412 334.76 48.6721 336.529 48.6721H358.813V146.488C358.813 147.594 358.853 148.615 358.949 149.558V228.647C358.949 232.622 361.603 235.007 366.024 235.007H398.39C402.811 235.007 405.465 232.622 405.465 228.647V149.836C405.49 149.252 405.5 148.631 405.5 147.971C405.5 146.639 405.455 145.472 405.328 144.449V48.6721H427.613C429.381 48.6721 430.973 47.2412 430.973 45.6515C430.973 44.0617 429.381 42.6309 427.613 42.6309ZM405.328 144.449C404.499 137.765 400.181 137.27 382.17 137.27C361.404 137.27 359 137.928 359 147.971C359 158.31 361.404 158.968 382.17 158.968C401.61 158.968 405.098 158.391 405.465 149.836V149.506C405.465 148.842 405.391 148.223 405.247 147.651C405.301 147.281 405.328 146.893 405.328 146.488V144.449ZM142.639 80.9138C142.639 84.5703 139.455 87.4319 135.387 87.4319H96.124V53.0494C96.124 50.9826 94.1785 49.3928 91.8793 49.3928C89.5801 49.3928 87.8115 50.9826 87.8115 53.0494V94.586H135.387C139.455 94.586 142.639 97.4476 142.639 101.104V143.797C142.639 147.771 139.986 150.156 135.564 150.156H48.3713C43.9498 150.156 41.2969 147.771 41.2969 143.797V114.299C41.2969 110.643 44.4804 107.781 48.5482 107.781H87.8115V140.617C87.8115 142.684 89.757 144.274 92.0562 144.274C94.3554 144.274 96.124 142.684 96.124 140.617V100.627H48.5482C44.4804 100.627 41.2969 97.7655 41.2969 94.109V49.8698C41.2969 45.8953 43.9498 43.5106 48.3713 43.5106H135.564C139.986 43.5106 142.639 45.8953 142.639 49.8698V80.9138ZM152.708 44.3904C148.249 44.3904 145.848 45.8149 145.848 48.4605V83.2435C145.848 85.8891 148.249 87.3138 152.708 87.3138H237.245C241.704 87.3138 244.104 85.8891 244.104 83.2435V48.4605C244.104 45.8149 241.704 44.3904 237.245 44.3904H152.708ZM199.006 80.8992C199.006 82.2222 197.12 83.2397 194.891 83.2397C192.662 83.2397 190.947 82.2222 190.947 80.8992V50.4956C190.947 49.1728 192.662 48.1553 194.891 48.1553C197.12 48.1553 199.006 49.1728 199.006 50.4956V80.8992ZM151.541 158.625C146.942 158.625 144.466 160.851 144.466 164.984V228.659C144.466 232.792 146.942 235.018 151.541 235.018H236.669C241.267 235.018 243.743 232.792 243.743 228.659V101.055C243.743 97.0805 241.09 94.6958 236.669 94.6958H206.368C201.769 94.6958 199.293 96.9215 199.293 101.055V154.81C199.293 156.876 197.525 158.625 195.225 158.625H151.541ZM190.981 168.164C190.981 166.097 192.926 164.507 195.225 164.507C197.525 164.507 199.293 166.097 199.293 168.164V225.479C199.293 227.546 197.525 229.136 195.225 229.136C192.926 229.136 190.981 227.546 190.981 225.479V168.164ZM249.401 164.973C249.401 160.84 251.877 158.614 256.476 158.614H343.668C348.267 158.614 350.743 160.84 350.743 164.973V182.302C350.743 185.958 347.559 212.757 343.491 212.757H304.228V168.153C304.228 166.086 302.283 164.496 299.983 164.496C297.684 164.496 295.916 166.086 295.916 168.153V228.647C295.916 232.781 293.44 235.007 288.841 235.007H256.476C252.054 235.007 249.401 232.622 249.401 228.647V164.973ZM461.805 225.468C461.805 227.694 460.567 229.124 458.268 229.124C455.968 229.124 454.73 227.694 454.73 225.468L453.316 158.614H418.12C413.522 158.614 410.869 161.158 411.399 165.291L417.413 228.965C417.766 232.94 420.419 235.007 424.841 235.007H491.695C496.116 235.007 498.769 232.94 499.123 228.965L505.136 165.291C505.667 161.158 503.014 158.614 498.415 158.614H463.22L461.805 225.468ZM558.789 225.15C558.789 227.217 560.558 228.965 562.857 228.965H610.433C612.201 228.965 613.793 230.396 613.793 231.986C613.793 233.576 612.201 235.007 610.433 235.007H519.349C514.927 235.007 512.276 232.622 512.276 228.647V164.973C512.276 160.84 514.751 158.614 519.349 158.614H606.542C611.14 158.614 613.616 160.84 613.616 164.973V205.119C613.616 209.252 611.14 211.478 606.542 211.478H562.857C560.558 211.478 558.789 213.226 558.789 215.293V225.15ZM562.857 164.496C560.558 164.496 558.789 166.086 558.789 168.153V201.939C558.789 204.006 560.558 205.595 562.857 205.595C565.156 205.595 567.102 204.006 567.102 201.939V168.153C567.102 166.086 565.156 164.496 562.857 164.496Z" fill="white"/>
</g>
</g>
<defs>
<filter id="filter0_dd_448_459" x="-14" y="-14" width="684" height="304" filterUnits="userSpaceOnUse" color-interpolation-filters="sRGB">
<feFlood flood-opacity="0" result="BackgroundImageFix"/>
<feColorMatrix in="SourceAlpha" type="matrix" values="0 0 0 0 0 0 0 0 0 0 0 0 0 0 0 0 0 0 127 0" result="hardAlpha"/>
<feOffset dx="-4" dy="-4"/>
<feGaussianBlur stdDeviation="5"/>
<feComposite in2="hardAlpha" operator="out"/>
<feColorMatrix type="matrix" values="0 0 0 0 0 0 0 0 0 0 0 0 0 0 0 0 0 0 0.3 0"/>
<feBlend mode="normal" in2="BackgroundImageFix" result="effect1_dropShadow_448_459"/>
<feColorMatrix in="SourceAlpha" type="matrix" values="0 0 0 0 0 0 0 0 0 0 0 0 0 0 0 0 0 0 127 0" result="hardAlpha"/>
<feOffset dx="4" dy="4"/>
<feGaussianBlur stdDeviation="5"/>
<feComposite in2="hardAlpha" operator="out"/>
<feColorMatrix type="matrix" values="0 0 0 0 0 0 0 0 0 0 0 0 0 0 0 0 0 0 0.3 0"/>
<feBlend mode="normal" in2="effect1_dropShadow_448_459" result="effect2_dropShadow_448_459"/>
<feBlend mode="normal" in="SourceGraphic" in2="effect2_dropShadow_448_459" result="shape"/>
</filter>
</defs>
</svg>
