<svg width="634" height="255" viewBox="0 0 634 255" fill="none" xmlns="http://www.w3.org/2000/svg">
<g filter="url(#filter0_d_448_459)">
<path fill-rule="evenodd" clip-rule="evenodd" d="M626 0H0V34.7638C0 14.1036 18.333 1 36.1388 1H404.861C422.667 1 441 14.1036 441 34.7638V114.021H589.861C607.667 114.021 626 127.124 626 147.784V0ZM626 212.705C626 231.092 611.479 243.494 595.732 246H133.51C117.763 243.494 103.242 231.092 103.242 212.705V160.538H36.1388C18.333 160.538 0 147.434 0 126.774V246H133.51C135.457 246.31 137.422 246.468 139.381 246.468H589.861C591.82 246.468 593.786 246.31 595.732 246H626V212.705ZM36.1388 17.4737C25.1812 17.4737 16.4737 25.2993 16.4737 34.7638V126.774C16.4737 136.238 25.1813 144.064 36.1388 144.064H119.716V212.705C119.716 222.169 128.423 229.995 139.381 229.995H589.861C600.819 229.995 609.526 222.169 609.526 212.705V147.784C609.526 138.32 600.819 130.494 589.861 130.494H424.526V34.7638C424.526 25.2993 415.819 17.4737 404.861 17.4737H36.1388ZM307.782 33.6721C309.551 33.6721 311.142 32.2412 311.142 30.6515C311.142 29.0617 309.551 27.6309 307.782 27.6309H242.166C237.745 27.6309 235.092 30.0155 235.092 33.99V124.823C235.092 128.798 237.745 134.895 242.166 134.895H274.886C279.13 134.895 281.607 128.321 281.607 125.3V83.6346C281.607 81.5679 283.375 79.8191 285.674 79.8191H304.952C306.721 79.8191 308.313 78.3883 308.313 76.7985C308.313 75.2087 306.721 73.7779 304.952 73.7779H281.607V37.4876C281.607 35.4208 283.375 33.6721 285.674 33.6721H307.782ZM412.613 27.6309H321.529C319.76 27.6309 318.169 29.0617 318.169 30.6515C318.169 32.2412 319.76 33.6721 321.529 33.6721H343.813V131.488C343.813 132.594 343.853 133.615 343.949 134.558V213.647C343.949 217.622 346.603 220.007 351.024 220.007H383.39C387.811 220.007 390.465 217.622 390.465 213.647V134.836C390.49 134.252 390.5 133.631 390.5 132.971C390.5 131.639 390.455 130.472 390.328 129.449V33.6721H412.613C414.381 33.6721 415.973 32.2412 415.973 30.6515C415.973 29.0617 414.381 27.6309 412.613 27.6309ZM390.328 129.449C389.499 122.765 385.181 122.27 367.17 122.27C346.404 122.27 344 122.928 344 132.971C344 143.31 346.404 143.968 367.17 143.968C386.61 143.968 390.098 143.391 390.465 134.836V134.506C390.465 133.842 390.391 133.223 390.247 132.651C390.301 132.281 390.328 131.893 390.328 131.488V129.449ZM127.639 65.9138C127.639 69.5703 124.455 72.4319 120.387 72.4319H81.124V38.0494C81.124 35.9826 79.1785 34.3928 76.8793 34.3928C74.5801 34.3928 72.8115 35.9826 72.8115 38.0494V79.586H120.387C124.455 79.586 127.639 82.4476 127.639 86.1041V128.797C127.639 132.771 124.986 135.156 120.564 135.156H33.3713C28.9498 135.156 26.2969 132.771 26.2969 128.797V99.2993C26.2969 95.6428 29.4804 92.7812 33.5482 92.7812H72.8115V125.617C72.8115 127.684 74.757 129.274 77.0562 129.274C79.3554 129.274 81.124 127.684 81.124 125.617V85.6272H33.5482C29.4804 85.6272 26.2969 82.7655 26.2969 79.109V34.8698C26.2969 30.8953 28.9498 28.5106 33.3713 28.5106H120.564C124.986 28.5106 127.639 30.8953 127.639 34.8698V65.9138ZM137.708 29.3904C133.249 29.3904 130.848 30.8149 130.848 33.4605V68.2435C130.848 70.8891 133.249 72.3138 137.708 72.3138H222.245C226.704 72.3138 229.104 70.8891 229.104 68.2435V33.4605C229.104 30.8149 226.704 29.3904 222.245 29.3904H137.708ZM184.006 65.8992C184.006 67.2222 182.12 68.2397 179.891 68.2397C177.662 68.2397 175.947 67.2222 175.947 65.8992V35.4956C175.947 34.1728 177.662 33.1553 179.891 33.1553C182.12 33.1553 184.006 34.1728 184.006 35.4956V65.8992ZM136.541 143.625C131.942 143.625 129.466 145.851 129.466 149.984V213.659C129.466 217.792 131.942 220.018 136.541 220.018H221.669C226.267 220.018 228.743 217.792 228.743 213.659V86.055C228.743 82.0805 226.09 79.6958 221.669 79.6958H191.368C186.769 79.6958 184.293 81.9215 184.293 86.055V139.81C184.293 141.876 182.525 143.625 180.225 143.625H136.541ZM175.981 153.164C175.981 151.097 177.926 149.507 180.225 149.507C182.525 149.507 184.293 151.097 184.293 153.164V210.479C184.293 212.546 182.525 214.136 180.225 214.136C177.926 214.136 175.981 212.546 175.981 210.479V153.164ZM234.401 149.973C234.401 145.84 236.877 143.614 241.476 143.614H328.668C333.267 143.614 335.743 145.84 335.743 149.973V167.302C335.743 170.958 332.559 197.757 328.491 197.757H289.228V153.153C289.228 151.086 287.283 149.496 284.983 149.496C282.684 149.496 280.916 151.086 280.916 153.153V213.647C280.916 217.781 278.44 220.007 273.841 220.007H241.476C237.054 220.007 234.401 217.622 234.401 213.647V149.973ZM446.805 210.468C446.805 212.694 445.567 214.124 443.268 214.124C440.968 214.124 439.73 212.694 439.73 210.468L438.316 143.614H403.12C398.522 143.614 395.869 146.158 396.399 150.291L402.413 213.965C402.766 217.94 405.419 220.007 409.841 220.007H476.695C481.116 220.007 483.769 217.94 484.123 213.965L490.136 150.291C490.667 146.158 488.014 143.614 483.415 143.614H448.22L446.805 210.468ZM543.789 210.15C543.789 212.217 545.558 213.965 547.857 213.965H595.433C597.201 213.965 598.793 215.396 598.793 216.986C598.793 218.576 597.201 220.007 595.433 220.007H504.349C499.927 220.007 497.276 217.622 497.276 213.647V149.973C497.276 145.84 499.751 143.614 504.349 143.614H591.542C596.14 143.614 598.616 145.84 598.616 149.973V190.119C598.616 194.252 596.14 196.478 591.542 196.478H547.857C545.558 196.478 543.789 198.226 543.789 200.293V210.15ZM547.857 149.496C545.558 149.496 543.789 151.086 543.789 153.153V186.939C543.789 189.006 545.558 190.595 547.857 190.595C550.156 190.595 552.102 189.006 552.102 186.939V153.153C552.102 151.086 550.156 149.496 547.857 149.496Z" fill="white"/>
</g>
<defs>
<filter id="filter0_d_448_459" x="0" y="0" width="634" height="254.469" filterUnits="userSpaceOnUse" color-interpolation-filters="sRGB">
<feFlood flood-opacity="0" result="BackgroundImageFix"/>
<feColorMatrix in="SourceAlpha" type="matrix" values="0 0 0 0 0 0 0 0 0 0 0 0 0 0 0 0 0 0 127 0" result="hardAlpha"/>
<feOffset dx="4" dy="4"/>
<feGaussianBlur stdDeviation="2"/>
<feComposite in2="hardAlpha" operator="out"/>
<feColorMatrix type="matrix" values="0 0 0 0 0 0 0 0 0 0 0 0 0 0 0 0 0 0 0.25 0"/>
<feBlend mode="normal" in2="BackgroundImageFix" result="effect1_dropShadow_448_459"/>
<feBlend mode="normal" in="SourceGraphic" in2="effect1_dropShadow_448_459" result="shape"/>
</filter>
</defs>
</svg>
